<svg id="visual" viewBox="0 0 900 450" width="900" height="450" xmlns="http://www.w3.org/2000/svg" xmlns:xlink="http://www.w3.org/1999/xlink" version="1.1"><rect x="0" y="0" width="900" height="450" fill="#001220"></rect><defs><linearGradient id="grad1_0" x1="50%" y1="0%" x2="100%" y2="100%"><stop offset="10%" stop-color="#001220" stop-opacity="1"></stop><stop offset="90%" stop-color="#001220" stop-opacity="1"></stop></linearGradient></defs><defs><linearGradient id="grad2_0" x1="0%" y1="0%" x2="50%" y2="100%"><stop offset="10%" stop-color="#001220" stop-opacity="1"></stop><stop offset="90%" stop-color="#001220" stop-opacity="1"></stop></linearGradient></defs><g transform="translate(900, 0)"><path d="M0 405C-45.3 376.4 -90.7 347.8 -135.5 327.1C-180.3 306.3 -224.5 293.4 -267.3 267.3C-310.1 241.1 -351.5 201.7 -374.2 155C-396.9 108.2 -400.9 54.1 -405 0L0 0Z" fill="#FBAE3C"></path></g><g transform="translate(0, 450)"><path d="M0 -405C38.1 -367.7 76.2 -330.4 131.6 -317.8C187 -305.2 259.7 -317.3 286.4 -286.4C313 -255.5 293.7 -181.6 305.8 -126.7C317.9 -71.8 361.5 -35.9 405 0L0 0Z" fill="#FBAE3C"></path></g></svg>