<svg id="visual" viewBox="0 0 900 450" width="900" height="450" xmlns="http://www.w3.org/2000/svg" xmlns:xlink="http://www.w3.org/1999/xlink" version="1.1"><rect x="0" y="0" width="900" height="450" fill="#001220"></rect><path d="M0 232L15 231.8C30 231.7 60 231.3 90 237.5C120 243.7 150 256.3 180 262.7C210 269 240 269 270 274.7C300 280.3 330 291.7 360 284.7C390 277.7 420 252.3 450 250.3C480 248.3 510 269.7 540 278C570 286.3 600 281.7 630 280.3C660 279 690 281 720 284.3C750 287.7 780 292.3 810 283.2C840 274 870 251 885 239.5L900 228L900 451L885 451C870 451 840 451 810 451C780 451 750 451 720 451C690 451 660 451 630 451C600 451 570 451 540 451C510 451 480 451 450 451C420 451 390 451 360 451C330 451 300 451 270 451C240 451 210 451 180 451C150 451 120 451 90 451C60 451 30 451 15 451L0 451Z" fill="#fa7268"></path><path d="M0 335L15 335.3C30 335.7 60 336.3 90 326.8C120 317.3 150 297.7 180 290C210 282.3 240 286.7 270 288.2C300 289.7 330 288.3 360 287C390 285.7 420 284.3 450 281C480 277.7 510 272.3 540 276C570 279.7 600 292.3 630 297C660 301.7 690 298.3 720 304.3C750 310.3 780 325.7 810 330.2C840 334.7 870 328.3 885 325.2L900 322L900 451L885 451C870 451 840 451 810 451C780 451 750 451 720 451C690 451 660 451 630 451C600 451 570 451 540 451C510 451 480 451 450 451C420 451 390 451 360 451C330 451 300 451 270 451C240 451 210 451 180 451C150 451 120 451 90 451C60 451 30 451 15 451L0 451Z" fill="#f16367"></path><path d="M0 343L15 341.8C30 340.7 60 338.3 90 330.2C120 322 150 308 180 306.5C210 305 240 316 270 322.2C300 328.3 330 329.7 360 326.5C390 323.3 420 315.7 450 312.5C480 309.3 510 310.7 540 315.5C570 320.3 600 328.7 630 330.8C660 333 690 329 720 326.2C750 323.3 780 321.7 810 318.2C840 314.7 870 309.3 885 306.7L900 304L900 451L885 451C870 451 840 451 810 451C780 451 750 451 720 451C690 451 660 451 630 451C600 451 570 451 540 451C510 451 480 451 450 451C420 451 390 451 360 451C330 451 300 451 270 451C240 451 210 451 180 451C150 451 120 451 90 451C60 451 30 451 15 451L0 451Z" fill="#e85467"></path><path d="M0 382L15 382.7C30 383.3 60 384.7 90 384C120 383.3 150 380.7 180 370.7C210 360.7 240 343.3 270 344.7C300 346 330 366 360 370.8C390 375.7 420 365.3 450 358.5C480 351.7 510 348.3 540 349.3C570 350.3 600 355.7 630 354.2C660 352.7 690 344.3 720 345C750 345.7 780 355.3 810 362.7C840 370 870 375 885 377.5L900 380L900 451L885 451C870 451 840 451 810 451C780 451 750 451 720 451C690 451 660 451 630 451C600 451 570 451 540 451C510 451 480 451 450 451C420 451 390 451 360 451C330 451 300 451 270 451C240 451 210 451 180 451C150 451 120 451 90 451C60 451 30 451 15 451L0 451Z" fill="#de4467"></path><path d="M0 378L15 375.2C30 372.3 60 366.7 90 368.5C120 370.3 150 379.7 180 379.3C210 379 240 369 270 364.8C300 360.7 330 362.3 360 367C390 371.7 420 379.3 450 382.3C480 385.3 510 383.7 540 382.8C570 382 600 382 630 381.2C660 380.3 690 378.7 720 380.7C750 382.7 780 388.3 810 386C840 383.7 870 373.3 885 368.2L900 363L900 451L885 451C870 451 840 451 810 451C780 451 750 451 720 451C690 451 660 451 630 451C600 451 570 451 540 451C510 451 480 451 450 451C420 451 390 451 360 451C330 451 300 451 270 451C240 451 210 451 180 451C150 451 120 451 90 451C60 451 30 451 15 451L0 451Z" fill="#d23467"></path><path d="M0 405L15 403.2C30 401.3 60 397.7 90 401.5C120 405.3 150 416.7 180 419.3C210 422 240 416 270 416C300 416 330 422 360 419.8C390 417.7 420 407.3 450 401.8C480 396.3 510 395.7 540 398.2C570 400.7 600 406.3 630 408.2C660 410 690 408 720 408.2C750 408.3 780 410.7 810 412C840 413.3 870 413.7 885 413.8L900 414L900 451L885 451C870 451 840 451 810 451C780 451 750 451 720 451C690 451 660 451 630 451C600 451 570 451 540 451C510 451 480 451 450 451C420 451 390 451 360 451C330 451 300 451 270 451C240 451 210 451 180 451C150 451 120 451 90 451C60 451 30 451 15 451L0 451Z" fill="#c62368"></path></svg>